<svg xmlns="http://www.w3.org/2000/svg" width="1020px" height="1020px" viewBox="0 0 768 768" version="1.1"  xmlns:xlink="http://www.w3.org/1999/xlink"><rect id="svgEditorBackground" x="0" y="0" width="768" height="768" style="fill: none; stroke: none;"/>

<path fill="#54a7ff" d="M139.39,0L320.67,0C333.74,2.7600000000000002,345.63,11.8,350.6,24.36C353.65,31.49,353.92,39.3,354.87,46.88C464.59,47.2,574.31,46.87,684.03,47.02C709.26,46.57,734.43,58,749.99,77.98C759.87,91.24,765.88,107.12,768,123.48L768,692.55C765.11,715.76,753.09,738.18,734.05,752.02C722.24,760.96,707.68,764.97,693.43,768L74.46,768C59.67,765.34,44.88,760.55,33.05,750.96C14.23,737.34,2.8,715.24,0,692.42L0,122.57C3.59,94.27,20.51,66.96,46.99,54.98C64.71,46.09,85,46.67,104.27,46.79C105.34,38.81,105.04,30.26,108.94,22.95C114.33,10.7,126.53,2.59,139.39,0Z"/>



</svg>